# AST/ASF file generated using VICON BodyLanguage
# -----------------------------------------------
:version 1.10
:name VICON
:units
  mass 1.0
  length 0.45
  angle deg
:documentation
   .ast/.asf automatically generated from VICON data using
   VICON BodyBuilder and BodyLanguage model FoxedUp or BRILLIANT.MOD
:root
   order TX TY TZ RX RY RZ
   axis XYZ
   position 0 0 0  
   orientation 0 0 0 
:bonedata
  begin
     id 1 
     name lhipjoint
     direction 0.671379 -0.66392 0.329334 
     length 2.38647 
     axis 0 0 0  XYZ
  end
  begin
     id 2 
     name lfemur
     direction 0.34202 -0.939693 0  
     length 6.48179  
     axis 0 0 20  XYZ
    dof rx ry rz
    limits (-160.0 20.0)
           (-70.0 70.0)
           (-60.0 70.0)
  end
  begin
     id 3 
     name ltibia
     direction 0.34202 -0.939693 0   
     length 6.86524   
     axis 0 0 20   XYZ
    dof rx
    limits (-10.0 170.0)
  end
  begin
     id 4 
     name lfoot
     direction 0.204886 -0.562919 0.800715   
     length 1.73031   
     axis -90 7.62852e-016 20   XYZ
    dof rx rz
    limits (-45.0 90.0)
           (-70.0 20.0)
  end
  begin
     id 5 
     name ltoes
     direction 1.53548e-011 -4.21841e-011 1   
     length 0.828161   
     axis -90 7.62852e-016 20   XYZ
    dof rx
    limits (-90.0 20.0)
  end
  begin
     id 6 
     name rhipjoint
     direction -0.662732 -0.670855 0.332775   
     length 2.3618  
     axis 0 0 0  XYZ 
  end
  begin
     id 7 
     name rfemur
     direction -0.34202 -0.939693 0   
     length 6.3025   
     axis 0 0 -20   XYZ
    dof rx ry rz
    limits (-160.0 20.0)
           (-70.0 70.0)
           (-70.0 60.0)
  end
  begin
     id 8 
     name rtibia
     direction -0.34202 -0.939693 0   
     length 6.8732   
     axis 0 0 -20   XYZ
    dof rx
    limits (-10.0 170.0)
 end
 begin
     id 9 
     name rfoot
     direction -0.173856 -0.477665 0.861168   
     length 1.54784  
     axis -90 -7.62852e-016 -20   XYZ
    dof rx rz
    limits (-45.0 90.0)
           (-20.0 70.0)
  end
  begin
     id 10 
     name rtoes
     direction -1.53562e-011 -4.21802e-011 1   
     length 0.759618   
     axis -90 -7.62852e-016 -20   XYZ
    dof rx
    limits (-90.0 20.0)
  end
  begin
     id 11 
     name lowerback
     direction -0.0278357 0.999497 -0.0151789   
     length 1.97203   
     axis 0 0 0   XYZ
    dof rx ry rz
    limits (-20.0 45.0)
           (-30.0 30.0)
           (-30.0 30.0)
  end
  begin
     id 12 
     name upperback
     direction -0.00360622 0.997542 0.0699804   
     length 1.94709   
     axis 0 0 0   XYZ
    dof rx ry rz
    limits (-20.0 45.0)
           (-30.0 30.0)
           (-30.0 30.0)
  end
  begin
     id 13 
     name thorax
     direction 0.00907706 0.997048 0.0762461   
     length 1.95722   
     axis 0 0 0   XYZ
    dof rx ry rz
    limits (-20.0 45.0)
           (-30.0 30.0)
           (-30.0 30.0)
  end
  begin
     id 14 
     name lowerneck
     direction -0.0481835 0.99872 -0.0153927   
     length 1.63078   
     axis 0 0 0   XYZ
    dof rx ry rz
    limits (-20.0 45.0)
           (-30.0 30.0)
           (-30.0 30.0)
  end
  begin
     id 15 
     name upperneck
     direction 0.0859716 0.979226 -0.183644   
     length 1.62591   
     axis 0 0 0   XYZ
    dof rx ry rz
    limits (-20.0 45.0)
           (-30.0 30.0)
           (-30.0 30.0)
  end
  begin
     id 16
     name head
     direction 0.0324821 0.997629 -0.0606773  
     length 1.64811  
     axis 0 0 0   XYZ
    dof rx ry rz
    limits (-20.0 45.0)
           (-30.0 30.0)
           (-30.0 30.0)
  end
  begin
     id 17 
     name lclavicle
     direction 0.939609 0.311019 0.142835  
     length 3.70647  
     axis 0 0 0   XYZ
    dof ry rz
    limits (-20.0 10.0)
           (0.0 20.0)
  end
  begin
     id 18 
     name lhumerus
     direction 1 -4.48963e-011 -1.59838e-027   
     length 4.59207   
     axis 180 -30 -90   XYZ
    dof rx ry rz
    limits (-60.0 90.0)
           (-90.0 90.0)
           (-90.0 90.0)
  end
  begin
     id 19
     name lradius
     direction 1 -4.48957e-011 -1.3483e-026   
     length 2.98109   
     axis 180 -30 -90   XYZ
    dof rx
    limits (-10.0 170.0)
  end
  begin
     id 20
     name lwrist
     direction 1 -4.48954e-011 -3.11579e-026   
     length 1.49055   
     axis 2.00652e-014 90 90   XYZ
    dof ry
    limits (-180.0 0.0)
 end
  begin
     id 21 
     name lhand
     direction 1 -4.4911e-011 -6.23158e-026   
     length 0.480203   
     axis 3.97628e-014 90 90   XYZ
    dof rx rz
    limits (-90.0 90.0)
           (-45.0 45.0)
  end
  begin
     id 22 
     name lfingers
     direction 1 -4.48893e-011 -1.24632e-025   
     length 0.387152   
     axis 7.95256e-014 90 90   XYZ
    dof rx
    limits (0.0 90.0)
  end
  begin
     id 23
     name lthumb
     direction 0.707107 -6.35013e-011 0.707107   
     length 0.555875   
     axis -90 45 2.85299e-015   XYZ
    dof rx rz
    limits (-45.0 45.0)
           (-45.0 45.0)
  end
  begin
     id 24 
     name rclavicle
     direction -0.950396 0.30392 0.0661859   
     length 3.70894  
     axis 0 0 0   XYZ 
    dof ry rz
    limits (-10.0 20.0)
           (-20.0 0.0)
  end
  begin
     id 25 
     name rhumerus
     direction -1 -4.48957e-011 -2.96677e-027  
     length 4.76508   
     axis 180 30 90   XYZ
    dof rx ry rz
    limits (-90.0 60.0)
           (-90.0 90.0)
           (-90.0 90.0)
  end
  begin
     id 26 
     name rradius
     direction -1 -4.48974e-011 -1.44501e-026   
     length 2.78902   
     axis 180 30 90   XYZ
    dof rx
    limits (-10.0 170.0)
  end
  begin
     id 27 
     name rwrist
     direction -1 -4.48978e-011 -3.11579e-026   
     length 1.39451   
     axis 2.00652e-014 -90 -90   XYZ
    dof ry
    limits (-180.0 0.0)
  end
  begin
     id 28
     name rhand
     direction -1 -4.48956e-011 -6.23158e-026   
     length 0.721303   
     axis 3.97628e-014 -90 -90   XYZ
    dof rx rz
    limits (-90.0 90.0)
           (-45.0 45.0)
  end
  begin
     id 29
     name rfingers
     direction -1 -4.4899e-011 -1.24632e-025   
     length 0.581533   
     axis 7.95256e-014 -90 -90   XYZ
    dof rx
    limits (0.0 90.0)
  end
  begin
     id 30
     name rthumb
     direction -0.707107 -6.34911e-011 0.707107   
     length 0.834968   
     axis -90 -45 -2.85299e-015   XYZ
    dof rx rz
    limits (-45.0 45.0)
           (-45.0 45.0)
  end
:hierarchy
  begin
    root lhipjoint rhipjoint lowerback
    lhipjoint lfemur
    lfemur ltibia
    ltibia lfoot
    lfoot ltoes
    rhipjoint rfemur
    rfemur rtibia
    rtibia rfoot
    rfoot rtoes
    lowerback upperback
    upperback thorax
    thorax lowerneck lclavicle rclavicle
    lowerneck upperneck
    upperneck head
    lclavicle lhumerus
    lhumerus lradius
    lradius lwrist
    lwrist lhand lthumb
    lhand lfingers
    rclavicle rhumerus
    rhumerus rradius
    rradius rwrist
    rwrist rhand rthumb
    rhand rfingers
  end

#!OML:ASF I:\salsa\salsa 7_09\Patient 1\Session 1\dancerfemale.ASF
:FULLY-SPECIFIED
:DEGREES
1182
root 6.72829 16.2124 1.64358 -539.19 1124.83 170.023
lowerback 1.21116 1.95334 -2.65393
upperback -7.21976 2.79981 -0.0361089
thorax -8.375 1.69044 1.18549
lowerneck -2.8448 3.36923 -1.53979
upperneck 15.2979 5.28991 -0.420451
head 5.03743 2.69814 0.4145
rclavicle 3.02153e-014 6.36111e-015
rhumerus -30.39 -12.0852 -88.1069
rradius 87.8615
rwrist -19.2053
rhand 4.54425 -305.654
rfingers 7.12502
rthumb 29.9352 26.7467
lclavicle 3.02153e-014 6.36111e-015
lhumerus -37.6144 -9.75897 111.303
lradius 101.875
lwrist -5.30781
lhand -31.779 11.2594
lfingers 7.12502
lthumb -5.0353 -318.82
rfemur -21.5924 -15.2359 23.2232
rtibia 29.2649
rfoot -36.7329 -40.4697
rtoes 15.8438
lfemur -9.0247 3.36376 -20.309
ltibia 42.6698
lfoot -1.12528 -2.95982
ltoes -30.3864
1183
root 6.63327 16.2165 1.64519 -539.828 1122.83 169.054
lowerback 1.67879 0.736179 -3.56921
upperback -7.15752 1.08267 0.0980479
thorax -8.52934 0.907708 1.98315
lowerneck -2.88099 4.13953 -0.456899
upperneck 15.0617 6.40164 -1.60542
head 5.03956 3.22441 -0.0703952
rclavicle -6.66923e-014 -2.70347e-014
rhumerus -27.3466 -11.9338 -88.4409
rradius 86.0954
rwrist -18.7032
rhand 4.80121 -305.508
rfingers 7.12502
rthumb 30.1803 26.9376
lclavicle -6.66923e-014 -2.70347e-014
lhumerus -39.342 -8.29709 110.584
lradius 103.056
lwrist -4.4468
lhand -32.3796 11.7635
lfingers 7.12502
lthumb -5.61519 -318.331
rfemur -22.7626 -16.11 21.9449
rtibia 30.9437
rfoot -36.7064 -41.2769
rtoes 16.5146
lfemur -7.91166 1.73889 -21.2463
ltibia 40.1445
lfoot -2.43398 -3.61906
ltoes -31.9383
1184
root 6.5478 16.2139 1.64735 -540.263 1121.02 168.734
lowerback 2.25342 -0.192853 -4.02835
upperback -6.9123 -0.240874 0.269754
thorax -8.51586 0.277502 2.5469
lowerneck -3.11493 4.72252 0.271665
upperneck 14.847 7.19573 -2.23119
head 5.06761 3.60315 -0.333864
rclavicle -6.55989e-015 -1.19271e-014
rhumerus -25.218 -12.4382 -88.4051
rradius 85.0324
rwrist -18.6149
rhand 4.91473 -305.592
rfingers 7.12502
rthumb 30.2886 26.8729
lclavicle -6.55989e-015 -1.19271e-014
lhumerus -40.5781 -7.93735 109.85
lradius 103.646
lwrist -3.89086
lhand -32.6176 12.3297
lfingers 7.12502
lthumb -5.84504 -317.771
rfemur -23.9181 -17.3508 21.0933
rtibia 33.2916
rfoot -35.7478 -41.7339
rtoes 15.689
lfemur -6.70775 -0.122441 -21.6583
ltibia 37.9871
lfoot -3.57603 -4.61675
ltoes -33.2596
1185
root 6.47025 16.214 1.64862 -540.33 1119.48 168.958
lowerback 2.75359 -0.828962 -3.80351
upperback -6.67859 -1.12491 0.331317
thorax -8.48852 -0.185586 2.57736
lowerneck -3.34494 5.04926 0.333869
upperneck 14.6575 7.53143 -1.79042
head 5.03765 3.78326 -0.188046
rclavicle -1.00287e-013 -3.33958e-014
rhumerus -24.5253 -13.6086 -88.0991
rradius 84.8678
rwrist -18.816
rhand 4.71222 -305.889
rfingers 7.12502
rthumb 30.0954 26.541
lclavicle -1.00287e-013 -3.33958e-014
lhumerus -41.2488 -8.68442 108.972
lradius 103.638
lwrist -3.72471
lhand -32.3652 12.4511
lfingers 7.12502
lthumb -5.60135 -317.643
rfemur -25.5066 -18.8481 20.6756
rtibia 36.4931
rfoot -34.006 -41.6778
rtoes 14.5741
lfemur -5.65699 -1.85822 -21.682
ltibia 36.1006
lfoot -4.47633 -5.40604
ltoes -34.0573
1186
root 6.37634 16.2195 1.6435 -540.926 1118.04 168.203
lowerback 3.23021 -1.25054 -3.79362
upperback -6.51399 -1.75382 -0.038159
thorax -8.55458 -0.516698 2.25334
lowerneck -3.30361 5.13306 -0.255358
upperneck 14.2706 7.47002 -0.556912
head 4.84008 3.78644 0.267674
rclavicle -3.65764e-014 6.36111e-015
rhumerus -25.3643 -15.2221 -87.5531
rradius 85.7532
rwrist -19.5034
rhand 3.93817 -306.456
rfingers 7.12502
rthumb 29.3567 25.8426
lclavicle -3.65764e-014 6.36111e-015
lhumerus -41.1007 -10.2408 108.095
lradius 103.129
lwrist -4.20169
lhand -31.9988 12.3128
lfingers 7.12502
lthumb -5.24754 -317.772
rfemur -27.7589 -20.7172 19.33
rtibia 40.5454
rfoot -29.9769 -41.1039
rtoes 11.5876
lfemur -4.81551 -3.45386 -22.7896
ltibia 34.3145
lfoot -4.87952 -5.38131
ltoes -33.754
1187
root 6.28993 16.2114 1.64226 -542.572 1117 165.489
lowerback 3.56004 -1.32809 -5.41332
upperback -6.41175 -2.04804 -0.843619
thorax -8.60739 -0.57934 2.34304
lowerneck -3.16823 4.99801 -1.173
upperneck 13.5304 7.13568 0.871631
head 5.00864 3.65008 0.893865
rclavicle 4.07509e-015 2.54444e-014
rhumerus -27.3974 -16.9985 -86.4868
rradius 87.3681
rwrist -21.0917
rhand 2.87413 -306.834
rfingers 7.12502
rthumb 28.3403 25.2906
lclavicle 4.07509e-015 2.54444e-014
lhumerus -39.593 -12.1416 107.893
lradius 101.758
lwrist -5.98704
lhand -31.6722 13.4809
lfingers 7.12502
lthumb -4.93222 -316.597
rfemur -30.8293 -22.6056 16.3447
rtibia 45.3301
rfoot -25.5877 -40.1922
rtoes 9.75306
lfemur -4.10365 -4.21571 -25.6986
ltibia 32.6783
lfoot -4.95 -4.63808
ltoes -32.3485
1188
root 6.21819 16.1758 1.64099 -544.789 1116.05 161.824
lowerback 3.95367 -1.18327 -7.96804
upperback -6.35046 -2.11726 -1.87723
thorax -8.75381 -0.456987 2.68015
lowerneck -3.04477 4.68802 -2.06554
upperneck 13.3614 6.60028 2.24112
head 4.84138 3.41489 1.47421
rclavicle 1.93815e-014 3.97569e-015
rhumerus -30.3107 -18.6871 -84.8519
rradius 89.2523
rwrist -23.5026
rhand 1.6983 -307.042
rfingers 7.12502
rthumb 27.216 24.9014
lclavicle 1.93815e-014 3.97569e-015
lhumerus -38.0628 -14.3221 108.301
lradius 100.742
lwrist -8.41679
lhand -29.1331 7.62756
lfingers 7.12502
lthumb -2.48024 -322.407
rfemur -34.2919 -24.7046 12.5617
rtibia 50.3254
rfoot -20.1334 -39.3888
rtoes 6.71887
lfemur -3.35503 -4.22046 -29.4139
ltibia 31.1955
lfoot -4.76268 -3.67778
ltoes -30.8516
